<?xml version="1.0" encoding="UTF-8"?>
<svg width="81px" height="75px" viewBox="0 0 81 75" version="1.1" xmlns="http://www.w3.org/2000/svg" xmlns:xlink="http://www.w3.org/1999/xlink">
    <title>Artboard</title>
    <g id="Artboard" stroke="none" stroke-width="1" fill="none" fill-rule="evenodd">
        <g id="noun-8-bit-sun-7304551" transform="translate(0.938000, 0.000000)" fill="#000000" fill-rule="nonzero">
            <polygon id="Path" points="26.562 25 32.812 25 32.812 31.25 26.562 31.25"></polygon>
            <polygon id="Path" points="7.812 6.25 14.062 6.25 14.062 12.5 7.812 12.5"></polygon>
            <polygon id="Path" points="26.562 43.75 32.812 43.75 32.812 50 26.562 50"></polygon>
            <polygon id="Path" points="14.062 56.25 20.312 56.25 20.312 62.5 14.062 62.5"></polygon>
            <polygon id="Path" points="7.812 62.5 14.062 62.5 14.062 68.75 7.812 68.75"></polygon>
            <polygon id="Path" points="26.562 31.25 20.312 31.25 20.312 43.75 26.562 43.75"></polygon>
            <polygon id="Path" points="45.312 25 45.312 18.75 32.812 18.75 32.812 25"></polygon>
            <polygon id="Path" points="35.937 9.375 42.187 9.375 42.187 15.625 35.937 15.625"></polygon>
            <polygon id="Path" points="35.937 0 42.187 0 42.187 6.25 35.937 6.25"></polygon>
            <polygon id="Path" points="35.937 68.75 42.187 68.75 42.187 75 35.937 75"></polygon>
            <polygon id="Path" points="35.937 59.375 42.187 59.375 42.187 65.625 35.937 65.625"></polygon>
            <polygon id="Path" points="62.5 34.375 68.75 34.375 68.75 40.625 62.5 40.625"></polygon>
            <polygon id="Path" points="71.874 34.375 78.124 34.375 78.124 40.625 71.874 40.625"></polygon>
            <polygon id="Path" points="0 34.375 6.25 34.375 6.25 40.625 1.77635684e-15 40.625"></polygon>
            <polygon id="Path" points="9.374 34.375 15.624 34.375 15.624 40.625 9.374 40.625"></polygon>
            <polygon id="Path" points="14.062 12.5 20.312 12.5 20.312 18.75 14.062 18.75"></polygon>
            <polygon id="Path" points="45.312 25 51.562 25 51.562 31.25 45.312 31.25"></polygon>
            <polygon id="Path" points="57.812 12.5 64.062 12.5 64.062 18.75 57.812 18.75"></polygon>
            <polygon id="Path" points="64.062 6.25 70.312 6.25 70.312 12.5 64.062 12.5"></polygon>
            <polygon id="Path" points="57.812 37.5 57.812 31.25 51.562 31.25 51.562 43.75 57.812 43.75"></polygon>
            <polygon id="Path" points="45.312 43.75 51.562 43.75 51.562 50 45.312 50"></polygon>
            <polygon id="Path" points="57.812 56.25 64.062 56.25 64.062 62.5 57.812 62.5"></polygon>
            <polygon id="Path" points="64.062 62.5 70.312 62.5 70.312 68.75 64.062 68.75"></polygon>
            <polygon id="Path" points="32.812 50 32.812 56.25 45.312 56.25 45.312 50"></polygon>
        </g>
    </g>
</svg>