<?xml version="1.0" encoding="UTF-8"?>
<svg width="493px" height="95px" viewBox="0 0 493 95" version="1.1" xmlns="http://www.w3.org/2000/svg" xmlns:xlink="http://www.w3.org/1999/xlink">
    <title>wortlab-logo-header</title>
    <g id="wortlab-logo-header" stroke="none" stroke-width="1" fill="none" fill-rule="evenodd">
        <g id="WortLab" transform="translate(0.838000, 0.600000)" fill-rule="nonzero">
            <path d="M94.4,94.4 L94.4,0 L0,0 L0,94.4 L94.4,94.4 Z M32.332,66.08 L21.83,66.08 L21.83,17.7 L32.332,17.7 L32.332,66.08 Z M52.392,66.08 L61.832,66.08 L61.832,76.464 L52.392,76.464 L52.392,66.08 Z M72.334,66.08 L61.832,66.08 L61.832,17.7 L72.334,17.7 L72.334,66.08 Z M41.89,66.08 L41.89,76.464 L32.45,76.464 L32.45,66.08 L41.89,66.08 Z M52.392,66.08 L41.89,66.08 L41.89,17.7 L52.392,17.7 L52.392,66.08 Z" id="W" fill="#FF2D2D"></path>
            <path d="M143.724,28.792 L143.724,18.526 L114.578,18.526 L114.578,28.792 L143.724,28.792 Z M154.108,66.198 L154.108,28.792 L143.724,28.792 L143.724,66.198 L154.108,66.198 Z M114.578,66.198 L114.578,28.792 L104.194,28.792 L104.194,66.198 L114.578,66.198 Z M143.724,76.464 L143.724,66.198 L114.578,66.198 L114.578,76.464 L143.724,76.464 Z M204.139,37.878 L175.112,37.878 L175.112,28.32 L204.14,28.32 L204.139,37.878 Z M204.14,48.262 L204.14,76.228 L214.406,76.228 L214.406,48.262 L204.14,48.262 Z M204.14,48.262 L204.14,37.878 L214.406,37.878 L214.406,28.32 L204.14,28.32 L204.14,17.936 L164.846,17.936 L164.846,76.228 L175.112,76.228 L175.112,48.262 L204.14,48.262 Z M251.222,76.582 L251.222,28.556 L266.444,28.556 L266.444,18.29 L225.734,18.29 L225.734,28.556 L240.956,28.556 L240.956,76.582 L251.222,76.582 Z" id="ort" fill="#101828"></path>
            <path d="M371.346,94.4 L371.346,0 L276.946,0 L276.946,94.4 L371.346,94.4 Z M344.442,76.582 L314.824,76.582 L314.824,66.67 L304.44,66.67 L304.44,17.818 L314.824,17.818 L314.824,66.198 L344.442,66.198 L344.442,76.582 Z" id="L" fill="#1A3AFF"></path>
            <path d="M421.378,28.084 L421.378,17.7 L392.35,17.7 L392.35,28.084 L421.378,28.084 Z M392.35,75.756 L392.35,48.026 L421.614,48.026 L421.614,75.756 L431.88,75.756 L431.88,28.084 L421.614,28.084 L421.614,37.76 L392.35,37.76 L392.35,28.084 L382.084,28.084 L382.084,75.756 L392.35,75.756 Z M482.502,37.76 L453.474,37.76 L453.474,28.084 L482.502,28.084 L482.502,37.76 Z M482.502,48.026 L482.502,65.49 L492.768,65.49 L492.768,48.026 L482.502,48.026 Z M482.502,48.026 L482.502,37.76 L492.768,37.76 L492.768,28.084 L482.502,28.084 L482.502,17.7 L443.208,17.7 L443.208,75.756 L482.502,75.756 L482.502,65.49 L453.474,65.49 L453.474,48.026 L482.502,48.026 Z" id="ab" fill="#101828"></path>
        </g>
    </g>
</svg>