<?xml version="1.0" encoding="UTF-8"?>
<svg width="190px" height="190px" viewBox="0 0 190 190" version="1.1" xmlns="http://www.w3.org/2000/svg" xmlns:xlink="http://www.w3.org/1999/xlink">
    <title>wortlab-logo-splashscreen-dark-mode copy</title>
    <g id="wortlab-logo-splashscreen-dark-mode-copy" stroke="none" stroke-width="1" fill="none" fill-rule="evenodd">
        <path d="M95.238,95 L95.238,0.6 L0.838,0.6 L0.838,95 L95.238,95 Z M33.17,66.68 L22.668,66.68 L22.668,18.3 L33.17,18.3 L33.17,66.68 Z M53.23,66.68 L62.67,66.68 L62.67,77.064 L53.23,77.064 L53.23,66.68 Z M73.172,66.68 L62.67,66.68 L62.67,18.3 L73.172,18.3 L73.172,66.68 Z M42.728,66.68 L42.728,77.064 L33.288,77.064 L33.288,66.68 L42.728,66.68 Z M53.23,66.68 L42.728,66.68 L42.728,18.3 L53.23,18.3 L53.23,66.68 Z" id="W" fill="#FFFFFF" fill-rule="nonzero"></path>
        <path d="M189.638,189.4 L189.638,95 L95.238,95 L95.238,189.4 L189.638,189.4 Z M162.734,171.582 L133.116,171.582 L133.116,161.67 L122.732,161.67 L122.732,112.818 L133.116,112.818 L133.116,161.198 L162.734,161.198 L162.734,171.582 Z" id="L" fill="#FFFFFF" fill-rule="nonzero"></path>
    </g>
</svg>