<?xml version="1.0" encoding="UTF-8"?>
<svg width="493px" height="95px" viewBox="0 0 493 95" version="1.1" xmlns="http://www.w3.org/2000/svg" xmlns:xlink="http://www.w3.org/1999/xlink">
    <title>wortlab-logo-header-calculator</title>
    <g id="wortlab-logo-header-calculator" stroke="none" stroke-width="1" fill="none" fill-rule="evenodd">
        <path d="M95.238,95 L95.238,0.6 L0.838,0.6 L0.838,95 L95.238,95 Z M33.17,66.68 L22.668,66.68 L22.668,18.3 L33.17,18.3 L33.17,66.68 Z M53.23,66.68 L62.67,66.68 L62.67,77.064 L53.23,77.064 L53.23,66.68 Z M73.172,66.68 L62.67,66.68 L62.67,18.3 L73.172,18.3 L73.172,66.68 Z M42.728,66.68 L42.728,77.064 L33.288,77.064 L33.288,66.68 L42.728,66.68 Z M53.23,66.68 L42.728,66.68 L42.728,18.3 L53.23,18.3 L53.23,66.68 Z M144.562,29.392 L144.562,19.126 L115.416,19.126 L115.416,29.392 L144.562,29.392 Z M154.946,66.798 L154.946,29.392 L144.562,29.392 L144.562,66.798 L154.946,66.798 Z M115.416,66.798 L115.416,29.392 L105.032,29.392 L105.032,66.798 L115.416,66.798 Z M144.562,77.064 L144.562,66.798 L115.416,66.798 L115.416,77.064 L144.562,77.064 Z M204.977,38.478 L175.95,38.478 L175.95,28.92 L204.978,28.92 L204.977,38.478 Z M204.978,48.862 L204.978,76.828 L215.244,76.828 L215.244,48.862 L204.978,48.862 Z M204.978,48.862 L204.978,38.478 L215.244,38.478 L215.244,28.92 L204.978,28.92 L204.978,18.536 L165.684,18.536 L165.684,76.828 L175.95,76.828 L175.95,48.862 L204.978,48.862 Z M252.06,77.182 L252.06,29.156 L267.282,29.156 L267.282,18.89 L226.572,18.89 L226.572,29.156 L241.794,29.156 L241.794,77.182 L252.06,77.182 Z M372.184,95 L372.184,0.6 L277.784,0.6 L277.784,95 L372.184,95 Z M345.28,77.182 L315.662,77.182 L315.662,67.27 L305.278,67.27 L305.278,18.418 L315.662,18.418 L315.662,66.798 L345.28,66.798 L345.28,77.182 Z M422.216,28.684 L422.216,18.3 L393.188,18.3 L393.188,28.684 L422.216,28.684 Z M393.188,76.356 L393.188,48.626 L422.452,48.626 L422.452,76.356 L432.718,76.356 L432.718,28.684 L422.452,28.684 L422.452,38.36 L393.188,38.36 L393.188,28.684 L382.922,28.684 L382.922,76.356 L393.188,76.356 Z M483.34,38.36 L454.312,38.36 L454.312,28.684 L483.34,28.684 L483.34,38.36 Z M483.34,48.626 L483.34,66.09 L493.606,66.09 L493.606,48.626 L483.34,48.626 Z M483.34,48.626 L483.34,38.36 L493.606,38.36 L493.606,28.684 L483.34,28.684 L483.34,18.3 L444.046,18.3 L444.046,76.356 L483.34,76.356 L483.34,66.09 L454.312,66.09 L454.312,48.626 L483.34,48.626 Z" id="WortLab" fill="#3A3000" fill-rule="nonzero"></path>
    </g>
</svg>